<svg width="13" height="13" viewBox="0 0 13 13" fill="none" xmlns="http://www.w3.org/2000/svg">
<path d="M12.4998 0.49994C12.3123 0.312469 12.058 0.207153 11.7928 0.207153C11.5277 0.207153 11.2733 0.312469 11.0858 0.49994L6.49982 5.08594L1.91382 0.49994C1.72629 0.312469 1.47198 0.207153 1.20682 0.207153C0.941654 0.207153 0.687346 0.312469 0.499818 0.49994C0.312347 0.687468 0.207031 0.941776 0.207031 1.20694C0.207031 1.4721 0.312347 1.72641 0.499818 1.91394L5.08582 6.49994L0.499818 11.0859C0.312347 11.2735 0.207031 11.5278 0.207031 11.7929C0.207031 12.0581 0.312347 12.3124 0.499818 12.4999C0.687346 12.6874 0.941654 12.7927 1.20682 12.7927C1.47198 12.7927 1.72629 12.6874 1.91382 12.4999L6.49982 7.91394L11.0858 12.4999C11.2733 12.6874 11.5277 12.7927 11.7928 12.7927C12.058 12.7927 12.3123 12.6874 12.4998 12.4999C12.6873 12.3124 12.7926 12.0581 12.7926 11.7929C12.7926 11.5278 12.6873 11.2735 12.4998 11.0859L7.91382 6.49994L12.4998 1.91394C12.6873 1.72641 12.7926 1.4721 12.7926 1.20694C12.7926 0.941776 12.6873 0.687468 12.4998 0.49994Z" fill="#FF5353"/>
</svg>
