<svg width="223" height="77" viewBox="0 0 223 77" fill="none" xmlns="http://www.w3.org/2000/svg">
<path d="M7.32386 64.7102C7.27841 64.2519 7.08333 63.8958 6.73864 63.642C6.39394 63.3883 5.92614 63.2614 5.33523 63.2614C4.93371 63.2614 4.5947 63.3182 4.31818 63.4318C4.04167 63.5417 3.82955 63.6951 3.68182 63.892C3.53788 64.089 3.46591 64.3125 3.46591 64.5625C3.45833 64.7708 3.50189 64.9527 3.59659 65.108C3.69508 65.2633 3.82955 65.3977 4 65.5114C4.17045 65.6212 4.36742 65.7178 4.59091 65.8011C4.81439 65.8807 5.05303 65.9489 5.30682 66.0057L6.35227 66.2557C6.85985 66.3693 7.32576 66.5208 7.75 66.7102C8.17424 66.8996 8.54167 67.1326 8.85227 67.4091C9.16288 67.6856 9.40341 68.0114 9.57386 68.3864C9.74811 68.7614 9.83712 69.1913 9.84091 69.6761C9.83712 70.3883 9.6553 71.0057 9.29545 71.5284C8.93939 72.0473 8.42424 72.4508 7.75 72.7386C7.07955 73.0227 6.27083 73.1648 5.32386 73.1648C4.38447 73.1648 3.56629 73.0208 2.86932 72.733C2.17614 72.4451 1.63447 72.0189 1.24432 71.4545C0.857955 70.8864 0.655303 70.1837 0.636364 69.3466H3.01705C3.04356 69.7367 3.1553 70.0625 3.35227 70.3239C3.55303 70.5814 3.82008 70.7765 4.15341 70.9091C4.49053 71.0379 4.87121 71.1023 5.29545 71.1023C5.71212 71.1023 6.07386 71.0417 6.38068 70.9205C6.69129 70.7992 6.93182 70.6307 7.10227 70.4148C7.27273 70.1989 7.35795 69.9508 7.35795 69.6705C7.35795 69.4091 7.2803 69.1894 7.125 69.0114C6.97348 68.8333 6.75 68.6818 6.45455 68.5568C6.16288 68.4318 5.80492 68.3182 5.38068 68.2159L4.11364 67.8977C3.13258 67.6591 2.35795 67.286 1.78977 66.7784C1.22159 66.2708 0.939394 65.5871 0.943182 64.7273C0.939394 64.0227 1.12689 63.4072 1.50568 62.8807C1.88826 62.3542 2.41288 61.9432 3.07955 61.6477C3.74621 61.3523 4.50379 61.2045 5.35227 61.2045C6.21591 61.2045 6.9697 61.3523 7.61364 61.6477C8.26136 61.9432 8.76515 62.3542 9.125 62.8807C9.48485 63.4072 9.67045 64.017 9.68182 64.7102H7.32386ZM17.8735 73.1705C16.9909 73.1705 16.2276 72.983 15.5837 72.608C14.9435 72.2292 14.4492 71.7027 14.1007 71.0284C13.7523 70.3504 13.578 69.5644 13.578 68.6705C13.578 67.7689 13.7523 66.9811 14.1007 66.3068C14.4492 65.6288 14.9435 65.1023 15.5837 64.7273C16.2276 64.3485 16.9909 64.1591 17.8735 64.1591C18.756 64.1591 19.5174 64.3485 20.1576 64.7273C20.8015 65.1023 21.2977 65.6288 21.6462 66.3068C21.9947 66.9811 22.1689 67.7689 22.1689 68.6705C22.1689 69.5644 21.9947 70.3504 21.6462 71.0284C21.2977 71.7027 20.8015 72.2292 20.1576 72.608C19.5174 72.983 18.756 73.1705 17.8735 73.1705ZM17.8848 71.2955C18.2863 71.2955 18.6216 71.1818 18.8905 70.9545C19.1595 70.7235 19.3621 70.4091 19.4985 70.0114C19.6386 69.6136 19.7087 69.161 19.7087 68.6534C19.7087 68.1458 19.6386 67.6932 19.4985 67.2955C19.3621 66.8977 19.1595 66.5833 18.8905 66.3523C18.6216 66.1212 18.2863 66.0057 17.8848 66.0057C17.4795 66.0057 17.1386 66.1212 16.8621 66.3523C16.5894 66.5833 16.3829 66.8977 16.2428 67.2955C16.1064 67.6932 16.0382 68.1458 16.0382 68.6534C16.0382 69.161 16.1064 69.6136 16.2428 70.0114C16.3829 70.4091 16.5894 70.7235 16.8621 70.9545C17.1386 71.1818 17.4795 71.2955 17.8848 71.2955ZM28.6432 61.3636V73H26.2228V61.3636H28.6432ZM38.6587 69.2841V64.2727H41.0792V73H38.7553V71.4148H38.6644C38.4675 71.9261 38.1398 72.3371 37.6815 72.6477C37.2269 72.9583 36.672 73.1136 36.0167 73.1136C35.4334 73.1136 34.9201 72.9811 34.4769 72.7159C34.0337 72.4508 33.6872 72.0739 33.4372 71.5852C33.1909 71.0966 33.0659 70.5114 33.0622 69.8295V64.2727H35.4826V69.3977C35.4864 69.9129 35.6247 70.3201 35.8974 70.6193C36.1701 70.9186 36.5356 71.0682 36.994 71.0682C37.2856 71.0682 37.5584 71.0019 37.8122 70.8693C38.0659 70.733 38.2705 70.5322 38.4258 70.267C38.5849 70.0019 38.6625 69.6742 38.6587 69.2841ZM49.4385 73.1705C48.5445 73.1705 47.7756 72.9811 47.1316 72.6023C46.4915 72.2197 45.9991 71.6894 45.6544 71.0114C45.3135 70.3333 45.143 69.553 45.143 68.6705C45.143 67.7765 45.3154 66.9924 45.6601 66.3182C46.0085 65.6402 46.5029 65.1117 47.143 64.733C47.7832 64.3504 48.5445 64.1591 49.4271 64.1591C50.1885 64.1591 50.8551 64.2973 51.4271 64.5739C51.9991 64.8504 52.4517 65.2386 52.7851 65.7386C53.1184 66.2386 53.3021 66.8258 53.3362 67.5H51.0521C50.9877 67.0644 50.8173 66.714 50.5407 66.4489C50.268 66.1799 49.9101 66.0455 49.4669 66.0455C49.0919 66.0455 48.7642 66.1477 48.4839 66.3523C48.2074 66.553 47.9915 66.8466 47.8362 67.233C47.6809 67.6193 47.6032 68.0871 47.6032 68.6364C47.6032 69.1932 47.679 69.6667 47.8305 70.0568C47.9858 70.447 48.2036 70.7443 48.4839 70.9489C48.7642 71.1534 49.0919 71.2557 49.4669 71.2557C49.7434 71.2557 49.9915 71.1989 50.2112 71.0852C50.4347 70.9716 50.6184 70.8068 50.7623 70.5909C50.9101 70.3712 51.0066 70.108 51.0521 69.8011H53.3362C53.2983 70.4678 53.1165 71.0549 52.7907 71.5625C52.4688 72.0663 52.0237 72.4602 51.4555 72.7443C50.8873 73.0284 50.215 73.1705 49.4385 73.1705ZM48.8703 72.9545H49.9839L49.893 73.4489C50.2832 73.5095 50.6013 73.6553 50.8476 73.8864C51.0976 74.1174 51.2244 74.4318 51.2282 74.8295C51.232 75.3939 50.9707 75.8428 50.4441 76.1761C49.9176 76.5133 49.179 76.6818 48.2282 76.6818L48.2055 75.6023C48.6828 75.6023 49.0559 75.5436 49.3248 75.4261C49.5976 75.3125 49.7396 75.1345 49.751 74.892C49.7585 74.661 49.6695 74.4848 49.4839 74.3636C49.2983 74.2424 49.0085 74.1572 48.6146 74.108L48.8703 72.9545ZM61.3091 73.1705C60.4265 73.1705 59.6633 72.983 59.0193 72.608C58.3792 72.2292 57.8849 71.7027 57.5364 71.0284C57.1879 70.3504 57.0136 69.5644 57.0136 68.6705C57.0136 67.7689 57.1879 66.9811 57.5364 66.3068C57.8849 65.6288 58.3792 65.1023 59.0193 64.7273C59.6633 64.3485 60.4265 64.1591 61.3091 64.1591C62.1917 64.1591 62.953 64.3485 63.5932 64.7273C64.2371 65.1023 64.7333 65.6288 65.0818 66.3068C65.4303 66.9811 65.6045 67.7689 65.6045 68.6705C65.6045 69.5644 65.4303 70.3504 65.0818 71.0284C64.7333 71.7027 64.2371 72.2292 63.5932 72.608C62.953 72.983 62.1917 73.1705 61.3091 73.1705ZM61.3205 71.2955C61.722 71.2955 62.0572 71.1818 62.3261 70.9545C62.5951 70.7235 62.7977 70.4091 62.9341 70.0114C63.0742 69.6136 63.1443 69.161 63.1443 68.6534C63.1443 68.1458 63.0742 67.6932 62.9341 67.2955C62.7977 66.8977 62.5951 66.5833 62.3261 66.3523C62.0572 66.1212 61.722 66.0057 61.3205 66.0057C60.9152 66.0057 60.5742 66.1212 60.2977 66.3523C60.025 66.5833 59.8186 66.8977 59.6784 67.2955C59.542 67.6932 59.4739 68.1458 59.4739 68.6534C59.4739 69.161 59.542 69.6136 59.6784 70.0114C59.8186 70.4091 60.025 70.7235 60.2977 70.9545C60.5742 71.1818 60.9152 71.2955 61.3205 71.2955ZM59.6841 63.1989L58.3375 63.1818C58.3375 62.4583 58.5155 61.9034 58.8716 61.517C59.2314 61.1307 59.6689 60.9356 60.1841 60.9318C60.4492 60.9318 60.6765 60.9754 60.8659 61.0625C61.0591 61.1458 61.2314 61.2443 61.383 61.358C61.5383 61.4716 61.686 61.572 61.8261 61.6591C61.9663 61.7424 62.1178 61.7841 62.2807 61.7841C62.5004 61.7803 62.667 61.6989 62.7807 61.5398C62.8981 61.3769 62.9568 61.1648 62.9568 60.9034L64.2807 60.9432C64.2731 61.6591 64.0913 62.2121 63.7352 62.6023C63.3792 62.9886 62.9455 63.1837 62.4341 63.1875C62.15 63.1875 61.9114 63.1458 61.7182 63.0625C61.5288 62.9754 61.3621 62.8769 61.2182 62.767C61.0742 62.6534 60.9341 62.553 60.7977 62.4659C60.6614 62.3788 60.508 62.3352 60.3375 62.3352C60.1405 62.3352 59.9814 62.4129 59.8602 62.5682C59.7428 62.7235 59.6841 62.9337 59.6841 63.1989ZM73.6357 73.1705C72.738 73.1705 71.9652 72.9886 71.3175 72.625C70.6736 72.2576 70.1773 71.7386 69.8289 71.0682C69.4804 70.3939 69.3061 69.5966 69.3061 68.6761C69.3061 67.7784 69.4804 66.9905 69.8289 66.3125C70.1773 65.6345 70.6679 65.1061 71.3005 64.7273C71.9368 64.3485 72.683 64.1591 73.5391 64.1591C74.1148 64.1591 74.6508 64.2519 75.147 64.4375C75.647 64.6193 76.0826 64.8939 76.4539 65.2614C76.8289 65.6288 77.1205 66.0909 77.3289 66.6477C77.5372 67.2008 77.6414 67.8485 77.6414 68.5909V69.2557H70.272V67.7557H75.363C75.363 67.4072 75.2872 67.0985 75.1357 66.8295C74.9842 66.5606 74.7739 66.3504 74.505 66.1989C74.2398 66.0436 73.9311 65.9659 73.5789 65.9659C73.2114 65.9659 72.8857 66.0511 72.6016 66.2216C72.3213 66.3883 72.1016 66.6136 71.9425 66.8977C71.7834 67.178 71.702 67.4905 71.6982 67.8352V69.2614C71.6982 69.6932 71.7777 70.0663 71.9368 70.3807C72.0997 70.6951 72.3289 70.9375 72.6243 71.108C72.9198 71.2784 73.2701 71.3636 73.6755 71.3636C73.9444 71.3636 74.1906 71.3258 74.4141 71.25C74.6376 71.1742 74.8289 71.0606 74.988 70.9091C75.147 70.7576 75.2683 70.572 75.3516 70.3523L77.5902 70.5C77.4766 71.0379 77.2436 71.5076 76.8914 71.9091C76.5429 72.3068 76.0921 72.6174 75.5391 72.8409C74.9898 73.0606 74.3554 73.1705 73.6357 73.1705ZM88.9623 66.7614L86.7464 66.8977C86.7085 66.7083 86.627 66.5379 86.502 66.3864C86.377 66.2311 86.2123 66.108 86.0077 66.017C85.807 65.9223 85.5664 65.875 85.2861 65.875C84.9111 65.875 84.5948 65.9545 84.3373 66.1136C84.0797 66.2689 83.9509 66.4773 83.9509 66.7386C83.9509 66.947 84.0342 67.1231 84.2009 67.267C84.3676 67.411 84.6536 67.5265 85.0589 67.6136L86.6384 67.9318C87.4869 68.1061 88.1195 68.3864 88.5361 68.7727C88.9528 69.1591 89.1611 69.6667 89.1611 70.2955C89.1611 70.8674 88.9926 71.3693 88.6555 71.8011C88.3221 72.233 87.8638 72.5701 87.2805 72.8125C86.7009 73.0511 86.0323 73.1705 85.2748 73.1705C84.1195 73.1705 83.199 72.9299 82.5134 72.4489C81.8316 71.964 81.432 71.3049 81.3145 70.4716L83.6952 70.3466C83.7672 70.6989 83.9414 70.9678 84.218 71.1534C84.4945 71.3352 84.8486 71.4261 85.2805 71.4261C85.7047 71.4261 86.0456 71.3447 86.3032 71.1818C86.5645 71.0152 86.6971 70.8011 86.7009 70.5398C86.6971 70.3201 86.6043 70.1402 86.4225 70C86.2407 69.8561 85.9604 69.7462 85.5816 69.6705L84.0702 69.3693C83.218 69.1989 82.5835 68.9034 82.1668 68.483C81.7539 68.0625 81.5475 67.5265 81.5475 66.875C81.5475 66.3144 81.699 65.8314 82.002 65.4261C82.3089 65.0208 82.7388 64.7083 83.2918 64.4886C83.8486 64.2689 84.5002 64.1591 85.2464 64.1591C86.3486 64.1591 87.2161 64.392 87.8486 64.858C88.485 65.3239 88.8562 65.9583 88.9623 66.7614ZM102.917 73.1705C102.114 73.1705 101.42 73.0265 100.837 72.7386C100.254 72.4508 99.8048 72.0606 99.4905 71.5682C99.1798 71.072 99.0245 70.5189 99.0245 69.9091C99.0245 69.4545 99.1155 69.0511 99.2973 68.6989C99.4791 68.3466 99.7329 68.0227 100.059 67.7273C100.384 67.428 100.763 67.1307 101.195 66.8352L103.451 65.3523C103.742 65.1667 103.956 64.9716 104.093 64.767C104.229 64.5587 104.297 64.3333 104.297 64.0909C104.297 63.8598 104.204 63.6458 104.019 63.4489C103.833 63.2519 103.57 63.1553 103.229 63.1591C103.002 63.1591 102.805 63.2102 102.638 63.3125C102.472 63.411 102.341 63.5417 102.246 63.7045C102.155 63.8636 102.11 64.0417 102.11 64.2386C102.11 64.4811 102.178 64.7273 102.314 64.9773C102.451 65.2273 102.633 65.4924 102.86 65.7727C103.087 66.0492 103.335 66.3485 103.604 66.6705L109.121 73H106.598L101.996 67.875C101.693 67.5303 101.39 67.1705 101.087 66.7955C100.788 66.4167 100.538 66.0152 100.337 65.5909C100.136 65.1629 100.036 64.6989 100.036 64.1989C100.036 63.6345 100.167 63.1269 100.428 62.6761C100.693 62.2254 101.064 61.8693 101.542 61.608C102.019 61.3428 102.576 61.2102 103.212 61.2102C103.833 61.2102 104.369 61.3371 104.82 61.5909C105.275 61.8409 105.623 62.1742 105.865 62.5909C106.112 63.0038 106.235 63.4583 106.235 63.9545C106.235 64.5038 106.098 65.0019 105.826 65.4489C105.557 65.892 105.178 66.2898 104.689 66.642L102.314 68.3523C101.992 68.5871 101.754 68.8277 101.598 69.0739C101.447 69.3163 101.371 69.5492 101.371 69.7727C101.371 70.0492 101.439 70.2973 101.576 70.517C101.712 70.7367 101.905 70.911 102.155 71.0398C102.405 71.1648 102.699 71.2273 103.036 71.2273C103.445 71.2273 103.848 71.1345 104.246 70.9489C104.648 70.7595 105.011 70.4924 105.337 70.1477C105.667 69.7992 105.93 69.3864 106.127 68.9091C106.324 68.4318 106.422 67.9034 106.422 67.3239H108.428C108.428 68.036 108.35 68.678 108.195 69.25C108.04 69.8182 107.824 70.3144 107.547 70.7386C107.271 71.1591 106.954 71.5038 106.598 71.7727C106.485 71.8447 106.375 71.9129 106.269 71.9773C106.163 72.0417 106.053 72.1098 105.939 72.1818C105.507 72.5303 105.025 72.7822 104.49 72.9375C103.96 73.0928 103.436 73.1705 102.917 73.1705ZM123.435 64.2727V66.0909H118.179V64.2727H123.435ZM119.372 62.1818H121.793V70.3182C121.793 70.5417 121.827 70.7159 121.895 70.8409C121.963 70.9621 122.058 71.0473 122.179 71.0966C122.304 71.1458 122.448 71.1705 122.611 71.1705C122.725 71.1705 122.838 71.161 122.952 71.142C123.066 71.1193 123.153 71.1023 123.213 71.0909L123.594 72.892C123.473 72.9299 123.302 72.9735 123.083 73.0227C122.863 73.0758 122.596 73.108 122.281 73.1193C121.698 73.142 121.187 73.0644 120.747 72.8864C120.312 72.7083 119.973 72.4318 119.73 72.0568C119.488 71.6818 119.369 71.2083 119.372 70.6364V62.1818ZM131.375 73.1705C130.477 73.1705 129.705 72.9886 129.057 72.625C128.413 72.2576 127.917 71.7386 127.568 71.0682C127.22 70.3939 127.046 69.5966 127.046 68.6761C127.046 67.7784 127.22 66.9905 127.568 66.3125C127.917 65.6345 128.407 65.1061 129.04 64.7273C129.676 64.3485 130.422 64.1591 131.278 64.1591C131.854 64.1591 132.39 64.2519 132.886 64.4375C133.386 64.6193 133.822 64.8939 134.193 65.2614C134.568 65.6288 134.86 66.0909 135.068 66.6477C135.277 67.2008 135.381 67.8485 135.381 68.5909V69.2557H128.011V67.7557H133.102C133.102 67.4072 133.027 67.0985 132.875 66.8295C132.724 66.5606 132.513 66.3504 132.244 66.1989C131.979 66.0436 131.671 65.9659 131.318 65.9659C130.951 65.9659 130.625 66.0511 130.341 66.2216C130.061 66.3883 129.841 66.6136 129.682 66.8977C129.523 67.178 129.441 67.4905 129.438 67.8352V69.2614C129.438 69.6932 129.517 70.0663 129.676 70.3807C129.839 70.6951 130.068 70.9375 130.364 71.108C130.659 71.2784 131.01 71.3636 131.415 71.3636C131.684 71.3636 131.93 71.3258 132.153 71.25C132.377 71.1742 132.568 71.0606 132.727 70.9091C132.886 70.7576 133.008 70.572 133.091 70.3523L135.33 70.5C135.216 71.0379 134.983 71.5076 134.631 71.9091C134.282 72.3068 133.831 72.6174 133.278 72.8409C132.729 73.0606 132.095 73.1705 131.375 73.1705ZM143.383 73.1705C142.49 73.1705 141.721 72.9811 141.077 72.6023C140.437 72.2197 139.944 71.6894 139.599 71.0114C139.258 70.3333 139.088 69.553 139.088 68.6705C139.088 67.7765 139.26 66.9924 139.605 66.3182C139.954 65.6402 140.448 65.1117 141.088 64.733C141.728 64.3504 142.49 64.1591 143.372 64.1591C144.133 64.1591 144.8 64.2973 145.372 64.5739C145.944 64.8504 146.397 65.2386 146.73 65.7386C147.063 66.2386 147.247 66.8258 147.281 67.5H144.997C144.933 67.0644 144.762 66.714 144.486 66.4489C144.213 66.1799 143.855 66.0455 143.412 66.0455C143.037 66.0455 142.709 66.1477 142.429 66.3523C142.152 66.553 141.937 66.8466 141.781 67.233C141.626 67.6193 141.548 68.0871 141.548 68.6364C141.548 69.1932 141.624 69.6667 141.776 70.0568C141.931 70.447 142.149 70.7443 142.429 70.9489C142.709 71.1534 143.037 71.2557 143.412 71.2557C143.688 71.2557 143.937 71.1989 144.156 71.0852C144.38 70.9716 144.563 70.8068 144.707 70.5909C144.855 70.3712 144.952 70.108 144.997 69.8011H147.281C147.243 70.4678 147.062 71.0549 146.736 71.5625C146.414 72.0663 145.969 72.4602 145.401 72.7443C144.832 73.0284 144.16 73.1705 143.383 73.1705ZM153.731 67.9545V73H151.311V64.2727H153.618V65.8125H153.72C153.913 65.3049 154.237 64.9034 154.692 64.608C155.146 64.3087 155.697 64.1591 156.345 64.1591C156.951 64.1591 157.479 64.2917 157.93 64.5568C158.381 64.822 158.731 65.2008 158.981 65.6932C159.231 66.1818 159.356 66.7652 159.356 67.4432V73H156.936V67.875C156.94 67.3409 156.803 66.9242 156.527 66.625C156.25 66.322 155.87 66.1705 155.385 66.1705C155.059 66.1705 154.771 66.2405 154.521 66.3807C154.275 66.5208 154.082 66.7254 153.942 66.9943C153.805 67.2595 153.735 67.5795 153.731 67.9545ZM167.687 73.1705C166.805 73.1705 166.041 72.983 165.397 72.608C164.757 72.2292 164.263 71.7027 163.914 71.0284C163.566 70.3504 163.392 69.5644 163.392 68.6705C163.392 67.7689 163.566 66.9811 163.914 66.3068C164.263 65.6288 164.757 65.1023 165.397 64.7273C166.041 64.3485 166.805 64.1591 167.687 64.1591C168.57 64.1591 169.331 64.3485 169.971 64.7273C170.615 65.1023 171.111 65.6288 171.46 66.3068C171.808 66.9811 171.983 67.7689 171.983 68.6705C171.983 69.5644 171.808 70.3504 171.46 71.0284C171.111 71.7027 170.615 72.2292 169.971 72.608C169.331 72.983 168.57 73.1705 167.687 73.1705ZM167.699 71.2955C168.1 71.2955 168.435 71.1818 168.704 70.9545C168.973 70.7235 169.176 70.4091 169.312 70.0114C169.452 69.6136 169.522 69.161 169.522 68.6534C169.522 68.1458 169.452 67.6932 169.312 67.2955C169.176 66.8977 168.973 66.5833 168.704 66.3523C168.435 66.1212 168.1 66.0057 167.699 66.0057C167.293 66.0057 166.952 66.1212 166.676 66.3523C166.403 66.5833 166.197 66.8977 166.057 67.2955C165.92 67.6932 165.852 68.1458 165.852 68.6534C165.852 69.161 165.92 69.6136 166.057 70.0114C166.197 70.4091 166.403 70.7235 166.676 70.9545C166.952 71.1818 167.293 71.2955 167.699 71.2955ZM178.457 61.3636V73H176.037V61.3636H178.457ZM186.819 73.1705C185.937 73.1705 185.173 72.983 184.529 72.608C183.889 72.2292 183.395 71.7027 183.046 71.0284C182.698 70.3504 182.524 69.5644 182.524 68.6705C182.524 67.7689 182.698 66.9811 183.046 66.3068C183.395 65.6288 183.889 65.1023 184.529 64.7273C185.173 64.3485 185.937 64.1591 186.819 64.1591C187.702 64.1591 188.463 64.3485 189.103 64.7273C189.747 65.1023 190.243 65.6288 190.592 66.3068C190.94 66.9811 191.115 67.7689 191.115 68.6705C191.115 69.5644 190.94 70.3504 190.592 71.0284C190.243 71.7027 189.747 72.2292 189.103 72.608C188.463 72.983 187.702 73.1705 186.819 73.1705ZM186.83 71.2955C187.232 71.2955 187.567 71.1818 187.836 70.9545C188.105 70.7235 188.308 70.4091 188.444 70.0114C188.584 69.6136 188.654 69.161 188.654 68.6534C188.654 68.1458 188.584 67.6932 188.444 67.2955C188.308 66.8977 188.105 66.5833 187.836 66.3523C187.567 66.1212 187.232 66.0057 186.83 66.0057C186.425 66.0057 186.084 66.1212 185.808 66.3523C185.535 66.5833 185.329 66.8977 185.188 67.2955C185.052 67.6932 184.984 68.1458 184.984 68.6534C184.984 69.161 185.052 69.6136 185.188 70.0114C185.329 70.4091 185.535 70.7235 185.808 70.9545C186.084 71.1818 186.425 71.2955 186.83 71.2955ZM199.1 76.4545C198.316 76.4545 197.644 76.3466 197.083 76.1307C196.526 75.9186 196.083 75.6288 195.754 75.2614C195.424 74.8939 195.21 74.4811 195.112 74.0227L197.35 73.7216C197.418 73.8958 197.526 74.0587 197.674 74.2102C197.822 74.3617 198.017 74.483 198.259 74.5739C198.506 74.6686 198.805 74.7159 199.157 74.7159C199.684 74.7159 200.117 74.5871 200.458 74.3295C200.803 74.0758 200.975 73.6496 200.975 73.0511V71.4545H200.873C200.767 71.697 200.608 71.9261 200.396 72.142C200.184 72.358 199.911 72.5341 199.577 72.6705C199.244 72.8068 198.846 72.875 198.384 72.875C197.729 72.875 197.132 72.7235 196.595 72.4205C196.06 72.1136 195.634 71.6458 195.316 71.017C195.002 70.3845 194.845 69.5852 194.845 68.6193C194.845 67.6307 195.006 66.8049 195.327 66.142C195.649 65.4792 196.077 64.983 196.612 64.6534C197.149 64.3239 197.738 64.1591 198.379 64.1591C198.867 64.1591 199.276 64.2424 199.606 64.4091C199.935 64.572 200.201 64.7765 200.401 65.0227C200.606 65.2652 200.763 65.5038 200.873 65.7386H200.964V64.2727H203.367V73.0852C203.367 73.8277 203.185 74.4489 202.822 74.9489C202.458 75.4489 201.954 75.8239 201.31 76.0739C200.67 76.3277 199.934 76.4545 199.1 76.4545ZM199.151 71.0568C199.542 71.0568 199.871 70.9602 200.14 70.767C200.413 70.5701 200.621 70.2898 200.765 69.9261C200.913 69.5587 200.987 69.1193 200.987 68.608C200.987 68.0966 200.915 67.6534 200.771 67.2784C200.627 66.8996 200.418 66.6061 200.146 66.3977C199.873 66.1894 199.542 66.0852 199.151 66.0852C198.754 66.0852 198.418 66.1932 198.146 66.4091C197.873 66.6212 197.667 66.9167 197.526 67.2955C197.386 67.6742 197.316 68.1117 197.316 68.608C197.316 69.1117 197.386 69.5473 197.526 69.9148C197.67 70.2784 197.877 70.5606 198.146 70.7614C198.418 70.9583 198.754 71.0568 199.151 71.0568ZM207.773 73V64.2727H210.194V73H207.773ZM208.989 63.1477C208.629 63.1477 208.321 63.0284 208.063 62.7898C207.809 62.5473 207.682 62.2576 207.682 61.9205C207.682 61.5871 207.809 61.3011 208.063 61.0625C208.321 60.8201 208.629 60.6989 208.989 60.6989C209.349 60.6989 209.656 60.8201 209.91 61.0625C210.167 61.3011 210.296 61.5871 210.296 61.9205C210.296 62.2576 210.167 62.5473 209.91 62.7898C209.656 63.0284 209.349 63.1477 208.989 63.1477ZM217.101 73.1648C216.545 73.1648 216.048 73.0682 215.613 72.875C215.177 72.678 214.832 72.3883 214.579 72.0057C214.329 71.6193 214.204 71.1383 214.204 70.5625C214.204 70.0777 214.293 69.6705 214.471 69.3409C214.649 69.0114 214.891 68.7462 215.198 68.5455C215.505 68.3447 215.853 68.1932 216.243 68.0909C216.637 67.9886 217.05 67.9167 217.482 67.875C217.99 67.822 218.399 67.7727 218.709 67.7273C219.02 67.678 219.245 67.6061 219.386 67.5114C219.526 67.4167 219.596 67.2765 219.596 67.0909V67.0568C219.596 66.697 219.482 66.4186 219.255 66.2216C219.031 66.0246 218.713 65.9261 218.3 65.9261C217.865 65.9261 217.518 66.0227 217.261 66.2159C217.003 66.4053 216.832 66.6439 216.749 66.9318L214.511 66.75C214.624 66.2197 214.848 65.7614 215.181 65.375C215.514 64.9848 215.944 64.6856 216.471 64.4773C217.001 64.2652 217.615 64.1591 218.312 64.1591C218.797 64.1591 219.261 64.2159 219.704 64.3295C220.151 64.4432 220.547 64.6193 220.891 64.858C221.24 65.0966 221.514 65.4034 221.715 65.7784C221.916 66.1496 222.016 66.5947 222.016 67.1136V73H219.721V71.7898H219.653C219.512 72.0625 219.325 72.303 219.09 72.5114C218.855 72.7159 218.573 72.8769 218.243 72.9943C217.914 73.108 217.533 73.1648 217.101 73.1648ZM217.795 71.4943C218.151 71.4943 218.465 71.4242 218.738 71.2841C219.011 71.1402 219.225 70.947 219.38 70.7045C219.535 70.4621 219.613 70.1875 219.613 69.8807V68.9545C219.537 69.0038 219.433 69.0492 219.3 69.0909C219.172 69.1288 219.026 69.1648 218.863 69.1989C218.7 69.2292 218.537 69.2576 218.374 69.2841C218.211 69.3068 218.064 69.3277 217.931 69.3466C217.647 69.3883 217.399 69.4545 217.187 69.5455C216.975 69.6364 216.81 69.7595 216.692 69.9148C216.575 70.0663 216.516 70.2557 216.516 70.483C216.516 70.8125 216.636 71.0644 216.874 71.2386C217.117 71.4091 217.423 71.4943 217.795 71.4943Z" fill="white"/>
<path d="M32.9716 21.1307C32.8352 19.7557 32.25 18.6875 31.2159 17.9261C30.1818 17.1648 28.7784 16.7841 27.0057 16.7841C25.8011 16.7841 24.7841 16.9545 23.9545 17.2955C23.125 17.625 22.4886 18.0852 22.0455 18.6761C21.6136 19.267 21.3977 19.9375 21.3977 20.6875C21.375 21.3125 21.5057 21.858 21.7898 22.3239C22.0852 22.7898 22.4886 23.1932 23 23.5341C23.5114 23.8636 24.1023 24.1534 24.7727 24.4034C25.4432 24.642 26.1591 24.8466 26.9205 25.017L30.0568 25.767C31.5795 26.108 32.9773 26.5625 34.25 27.1307C35.5227 27.6989 36.625 28.3977 37.5568 29.2273C38.4886 30.0568 39.2102 31.0341 39.7216 32.1591C40.2443 33.2841 40.5114 34.5739 40.5227 36.0284C40.5114 38.1648 39.9659 40.017 38.8864 41.5852C37.8182 43.142 36.2727 44.3523 34.25 45.2159C32.2386 46.0682 29.8125 46.4943 26.9716 46.4943C24.1534 46.4943 21.6989 46.0625 19.608 45.1989C17.5284 44.3352 15.9034 43.0568 14.733 41.3636C13.5739 39.6591 12.9659 37.5511 12.9091 35.0398H20.0511C20.1307 36.2102 20.4659 37.1875 21.0568 37.9716C21.6591 38.7443 22.4602 39.3295 23.4602 39.7273C24.4716 40.1136 25.6136 40.3068 26.8864 40.3068C28.1364 40.3068 29.2216 40.125 30.142 39.7614C31.0739 39.3977 31.7955 38.892 32.3068 38.2443C32.8182 37.5966 33.0739 36.8523 33.0739 36.0114C33.0739 35.2273 32.8409 34.5682 32.375 34.0341C31.9205 33.5 31.25 33.0455 30.3636 32.6705C29.4886 32.2955 28.4148 31.9545 27.142 31.6477L23.3409 30.6932C20.3977 29.9773 18.0739 28.858 16.3693 27.3352C14.6648 25.8125 13.8182 23.7614 13.8295 21.1818C13.8182 19.0682 14.3807 17.2216 15.517 15.642C16.6648 14.0625 18.2386 12.8295 20.2386 11.9432C22.2386 11.0568 24.5114 10.6136 27.0568 10.6136C29.6477 10.6136 31.9091 11.0568 33.8409 11.9432C35.7841 12.8295 37.2955 14.0625 38.375 15.642C39.4545 17.2216 40.0114 19.0511 40.0455 21.1307H32.9716ZM57.2827 46.5114C54.5895 46.5114 52.2713 45.9659 50.3281 44.875C48.3963 43.7727 46.9077 42.2159 45.8622 40.2045C44.8168 38.1818 44.294 35.7898 44.294 33.0284C44.294 30.3352 44.8168 27.9716 45.8622 25.9375C46.9077 23.9034 48.3793 22.3182 50.277 21.1818C52.1861 20.0455 54.4247 19.4773 56.9929 19.4773C58.7202 19.4773 60.3281 19.7557 61.8168 20.3125C63.3168 20.858 64.6236 21.6818 65.7372 22.7841C66.8622 23.8864 67.7372 25.2727 68.3622 26.9432C68.9872 28.6023 69.2997 30.5455 69.2997 32.7727V34.767H47.1918V30.267H62.4645C62.4645 29.2216 62.2372 28.2955 61.7827 27.4886C61.3281 26.6818 60.6974 26.0511 59.8906 25.5966C59.0952 25.1307 58.169 24.8977 57.1122 24.8977C56.0099 24.8977 55.0327 25.1534 54.1804 25.6648C53.3395 26.1648 52.6804 26.8409 52.2031 27.6932C51.7259 28.5341 51.4815 29.4716 51.4702 30.5057V34.7841C51.4702 36.0795 51.7088 37.1989 52.1861 38.142C52.6747 39.0852 53.3622 39.8125 54.2486 40.3239C55.1349 40.8352 56.1861 41.0909 57.402 41.0909C58.2088 41.0909 58.9474 40.9773 59.6179 40.75C60.2884 40.5227 60.8622 40.1818 61.3395 39.7273C61.8168 39.2727 62.1804 38.7159 62.4304 38.0568L69.1463 38.5C68.8054 40.1136 68.1065 41.5227 67.0497 42.7273C66.0043 43.9205 64.652 44.8523 62.9929 45.5227C61.3452 46.1818 59.4418 46.5114 57.2827 46.5114ZM74.0384 46V19.8182H81.0781V24.3864H81.3509C81.8281 22.7614 82.6293 21.5341 83.7543 20.7045C84.8793 19.8636 86.1747 19.4432 87.6406 19.4432C88.0043 19.4432 88.3963 19.4659 88.8168 19.5114C89.2372 19.5568 89.6065 19.6193 89.9247 19.6989V26.142C89.5838 26.0398 89.1122 25.9489 88.5099 25.8693C87.9077 25.7898 87.3565 25.75 86.8565 25.75C85.7884 25.75 84.8338 25.983 83.9929 26.4489C83.1634 26.9034 82.5043 27.5398 82.0156 28.358C81.5384 29.1761 81.2997 30.1193 81.2997 31.1875V46H74.0384ZM118.885 19.8182L109.732 46H101.55L92.3963 19.8182H100.067L105.504 38.5511H105.777L111.197 19.8182H118.885ZM122.601 46V19.8182H129.862V46H122.601ZM126.249 16.4432C125.169 16.4432 124.243 16.0852 123.47 15.3693C122.709 14.642 122.328 13.7727 122.328 12.7614C122.328 11.7614 122.709 10.9034 123.47 10.1875C124.243 9.46023 125.169 9.09659 126.249 9.09659C127.328 9.09659 128.249 9.46023 129.01 10.1875C129.783 10.9034 130.169 11.7614 130.169 12.7614C130.169 13.7727 129.783 14.642 129.01 15.3693C128.249 16.0852 127.328 16.4432 126.249 16.4432ZM135.679 55.8182V19.8182H142.838V24.2159H143.162C143.48 23.5114 143.94 22.7955 144.543 22.0682C145.156 21.3295 145.952 20.7159 146.929 20.2273C147.918 19.7273 149.145 19.4773 150.611 19.4773C152.52 19.4773 154.281 19.9773 155.895 20.9773C157.509 21.9659 158.798 23.4602 159.764 25.4602C160.73 27.4489 161.213 29.9432 161.213 32.9432C161.213 35.8636 160.741 38.3295 159.798 40.3409C158.866 42.3409 157.594 43.858 155.98 44.892C154.378 45.9148 152.582 46.4261 150.594 46.4261C149.185 46.4261 147.986 46.1932 146.997 45.7273C146.02 45.2614 145.219 44.6761 144.594 43.9716C143.969 43.2557 143.491 42.5341 143.162 41.8068H142.94V55.8182H135.679ZM142.787 32.9091C142.787 34.4659 143.003 35.8239 143.435 36.983C143.866 38.142 144.491 39.0455 145.31 39.6932C146.128 40.3295 147.122 40.6477 148.293 40.6477C149.474 40.6477 150.474 40.3239 151.293 39.6761C152.111 39.017 152.73 38.108 153.151 36.9489C153.582 35.7784 153.798 34.4318 153.798 32.9091C153.798 31.3977 153.588 30.0682 153.168 28.9205C152.747 27.7727 152.128 26.875 151.31 26.2273C150.491 25.5795 149.486 25.2557 148.293 25.2557C147.111 25.2557 146.111 25.5682 145.293 26.1932C144.486 26.8182 143.866 27.7045 143.435 28.8523C143.003 30 142.787 31.3523 142.787 32.9091ZM173.52 46.4943C171.849 46.4943 170.361 46.2045 169.054 45.625C167.747 45.0341 166.713 44.1648 165.952 43.017C165.202 41.858 164.827 40.4148 164.827 38.6875C164.827 37.233 165.094 36.0114 165.628 35.0227C166.162 34.0341 166.889 33.2386 167.81 32.6364C168.73 32.0341 169.776 31.5795 170.946 31.2727C172.128 30.9659 173.366 30.75 174.662 30.625C176.185 30.4659 177.412 30.3182 178.344 30.1818C179.276 30.0341 179.952 29.8182 180.372 29.5341C180.793 29.25 181.003 28.8295 181.003 28.2727V28.1705C181.003 27.0909 180.662 26.2557 179.98 25.6648C179.31 25.0739 178.355 24.7784 177.116 24.7784C175.81 24.7784 174.77 25.0682 173.997 25.6477C173.224 26.2159 172.713 26.9318 172.463 27.7955L165.747 27.25C166.088 25.6591 166.759 24.2841 167.759 23.125C168.759 21.9545 170.048 21.0568 171.628 20.4318C173.219 19.7955 175.06 19.4773 177.151 19.4773C178.605 19.4773 179.997 19.6477 181.327 19.9886C182.668 20.3295 183.855 20.858 184.889 21.5739C185.935 22.2898 186.759 23.2102 187.361 24.3352C187.963 25.4489 188.264 26.7841 188.264 28.3409V46H181.378V42.3693H181.173C180.753 43.1875 180.19 43.9091 179.486 44.5341C178.781 45.1477 177.935 45.6307 176.946 45.983C175.957 46.3239 174.815 46.4943 173.52 46.4943ZM175.599 41.483C176.668 41.483 177.611 41.2727 178.429 40.8523C179.247 40.4205 179.889 39.8409 180.355 39.1136C180.821 38.3864 181.054 37.5625 181.054 36.642V33.8636C180.827 34.0114 180.514 34.1477 180.116 34.2727C179.73 34.3864 179.293 34.4943 178.804 34.5966C178.315 34.6875 177.827 34.7727 177.338 34.8523C176.849 34.9205 176.406 34.983 176.009 35.0398C175.156 35.1648 174.412 35.3636 173.776 35.6364C173.139 35.9091 172.645 36.2784 172.293 36.7443C171.94 37.1989 171.764 37.767 171.764 38.4489C171.764 39.4375 172.122 40.1932 172.838 40.7159C173.565 41.2273 174.486 41.483 175.599 41.483ZM193.898 46V19.8182H200.938V24.3864H201.21C201.688 22.7614 202.489 21.5341 203.614 20.7045C204.739 19.8636 206.034 19.4432 207.5 19.4432C207.864 19.4432 208.256 19.4659 208.676 19.5114C209.097 19.5568 209.466 19.6193 209.784 19.6989V26.142C209.443 26.0398 208.972 25.9489 208.369 25.8693C207.767 25.7898 207.216 25.75 206.716 25.75C205.648 25.75 204.693 25.983 203.852 26.4489C203.023 26.9034 202.364 27.5398 201.875 28.358C201.398 29.1761 201.159 30.1193 201.159 31.1875V46H193.898Z" fill="#00E5A1"/>
</svg>
